#!OML:ASF F:\VICON\USERDATA\INSTALL\rory3\rory3.ASF
:FULLY-SPECIFIED
:DEGREES
1
root -7.187702857237949 17.600812613592044 1.9487569208627766 -88.53420136791952 87.79647844621587 -103.74000081932753
lfemur -29.827492264622457 9.51302424555547 -9.538716824541629
ltibia 32.97449716288223
lfoot -13.769284219006941 -5.457535780890565
ltoes -20.88949160744698
rfemur -30.204489790847518 -2.7026961681546977 9.408114479054342
rtibia 32.851592630080866
rfoot -11.467887863225195 -7.571590492571111
rtoes -5.540351932215149
lowerback 2.4828526884899285 2.3910502614466025 -1.99674887352966
upperback 2.3014300932053997 3.2222002800439036 4.178154325737462
thorax 0.6268425507614661 1.5992399593733235 5.3684137947046935
lowerneck -13.833094231324129 -2.602939582634327 -0.08958887234573612
upperneck 41.95307585077883 0.11050649258677381 -3.6867995449851967
head 17.93037302400987 0.25569492829325813 -1.4473962141645207
lclavicle -7.014205151883567e-15 -5.153636109557327e-15
lhumerus -5.195958851733437 -49.20429196501182 105.92597831719975
lradius 20.12441125022828
lwrist 24.1455989690148
lhand 2.206768317419126 68.88747420761175
lfingers 7.125020000000003
lthumb -152.29801170872594 83.13291755580616
rclavicle -7.014205151883567e-15 -5.153636109557327e-15
rhumerus -7.877177028688209 -2.548354755365917 -103.17298175409252
rradius 25.75001308321138
rwrist -47.509786142228634
rhand -22.64781313070586 -10.150680174872335
rfingers 7.125020000000003
rthumb 3.7832268452610442 -40.09677950688727
2
root -7.212832469401382 17.584113551530198 2.0084867002903 -51.835005925501925 87.26327863685249 -67.00380547720741
lfemur -29.49749254766904 10.485893691104836 -9.075637248663845
ltibia 33.21169684353195
lfoot -14.010484095622957 -4.567786155761894
ltoes -22.9871910629444
rfemur -31.155689351994003 -1.5589174458618529 9.764513978286558
rtibia 33.534491838430114
rfoot -11.680687741583982 -6.522970888000612
rtoes -4.317262806605772
lowerback 2.8492220587388655 2.7102299341177627 -2.5991684051033968
upperback 2.2673301448306615 3.629379974501584 4.014884672948146
thorax 0.3174602809292564 1.802059643229821 5.506093518585962
lowerneck -13.821994251339252 -2.3500897312947227 -0.07764411296561649
upperneck 41.9020758958964 0.4109733681067682 -3.5369397320183884
head 17.90757308402212 0.3880888110672467 -1.3260272766688024
lclavicle -7.014204974493833e-15 -5.153636302736199e-15
lhumerus -4.7851589776737455 -54.17659045731398 104.24997918827671
lradius 20.607010959240778
lwrist 26.490697603193688
lhand 5.030586013806003 67.9218747143388
lfingers 7.125020000000003
lthumb -149.60101399946794 84.56391747885806
rclavicle -7.014204974493833e-15 -5.153636302736199e-15
rhumerus -8.52625687866233 -2.6812947009908417 -103.92298132997001
rradius 27.252512537292056
rwrist -48.443685716051526
rhand -23.94431237119084 -10.303780067959181
rfingers 7.125020000000003
rthumb 2.5311276086838213 -40.26847938942743
3
root -7.238602071687564 17.5789138435828 2.0772964461869625 -26.231309105161912 85.82857914980595 -41.19390874971306
lfemur -28.657093268494332 11.219193273188097 -8.704597588489156
ltibia 33.15629691811884
lfoot -13.942784130254356 -3.0856667802119304
ltoes -23.853090838181803
rfemur -32.04438894197616 -0.39844974221214813 9.9781736780788
rtibia 34.18239108735306
rfoot -11.626187772737405 -5.337551335016727
rtoes -4.64658257117393
lowerback 3.335811222342418 2.9803696570809395 -3.6551075840316565
upperback 2.298580097520129 3.9513497328996854 3.8931749317771542
thorax -0.018544026072728537 1.959729397463396 5.938882650620908
lowerneck -13.745894388560005 -1.9947899401894769 -0.33001895472851145
upperneck 41.768176014351965 1.0090591203266523 -3.542129725540994
head 17.832473281694174 0.5724046478677824 -1.173628610817707
lclavicle -7.014205544674041e-15 -5.153636320706611e-15
lhumerus -4.228039148472092 -59.75098876704758 102.31198019552448
lradius 21.876910193544653
lwrist 30.331295366371144
lhand 6.338414946905695 69.0191741384981
lfingers 7.125020000000003
lthumb -148.35401505862825 83.70451752507068
rclavicle -7.014205544674041e-15 -5.153636320706611e-15
rhumerus -8.916786788396848 -2.6074547311928793 -104.5069809997198
rradius 28.29161215974485
rwrist -49.107085413314636
rhand -26.330110973542432 -10.393080005599032
rfingers 7.125020000000003
rthumb 0.22690101360365134 -40.37267931814438
4
root -7.269971587547767 17.579813793035232 2.152026170222099 -15.362310454956216 83.91117983534048 -30.086210158087425
lfemur -27.51339424946514 11.377193183141943 -8.071838168016619
ltibia 32.92619722791014
lfoot -13.719584244430603 -1.1607375912275266
ltoes -24.020290794781534
rfemur -32.76198861089825 0.6861550461834809 10.39161309716569
rtibia 34.56869063953541
rfoot -11.380787913013526 -4.3292217152530625
rtoes -2.7467039294036937
lowerback 3.5917107824775663 3.1233795104198148 -4.511046918474778
upperback 2.567319690664764 4.104439618023038 3.617905517167519
thorax 0.05976688910702177 2.019279304640472 6.123532280303319
lowerneck -13.763894356103059 -1.3830302998670865 -0.32937295692532037
upperneck 41.30587642332885 1.8666587650328794 -3.606769644866862
head 17.59767389971538 0.8759853790671641 -1.0475297147296287
lclavicle -7.014204947568978e-15 -5.153636105064781e-15
lhumerus -2.416609703808632 -64.54528731332262 99.22298180098817
lradius 23.003209514433294
lwrist 32.894593873467095
lhand 9.678692221975316 67.56657490079296
lfingers 7.125020000000003
lthumb -145.17801775621697 85.83591741045922
rclavicle -7.014204947568978e-15 -5.153636105064781e-15
rhumerus -8.678116843562002 -3.7014842837125688 -105.04298069661361
rradius 29.105711863949196
rwrist -49.519085225302035
rhand -30.348208619660678 -10.149380175780106
rfingers 7.125020000000003
rthumb -3.653768620296592 -40.09787950613462
